<?xml version="1.0" encoding="utf-8"?>
<!-- Generator: Adobe Illustrator 16.0.4, SVG Export Plug-In . SVG Version: 6.00 Build 0)  -->
<!DOCTYPE svg PUBLIC "-//W3C//DTD SVG 1.1//EN" "http://www.w3.org/Graphics/SVG/1.1/DTD/svg11.dtd">
<svg version="1.1" id="Layer_1" xmlns="http://www.w3.org/2000/svg" xmlns:xlink="http://www.w3.org/1999/xlink" x="0px" y="0px"
	 width="100px" height="46.611px" viewBox="0 0 100 46.611" enable-background="new 0 0 100 46.611" xml:space="preserve">
<circle fill="#F9AFAF" cx="78.528" cy="18.528" r="15.972"/>
<g>
	<g>
		<path fill="#FFFFFF" d="M13.084,14.999c0,0.456-0.086,0.83-0.258,1.122c-0.172,0.292-0.392,0.522-0.66,0.69
			s-0.564,0.286-0.888,0.354c-0.324,0.068-0.634,0.102-0.93,0.102H7.744V8.771h2.316c0.32,0,0.638,0.032,0.954,0.096
			s0.598,0.172,0.846,0.324c0.248,0.152,0.448,0.356,0.6,0.612s0.228,0.58,0.228,0.972c0,0.304-0.048,0.568-0.144,0.792
			c-0.096,0.224-0.226,0.416-0.39,0.576c-0.164,0.16-0.35,0.29-0.558,0.39s-0.42,0.174-0.636,0.222v0.024
			c0.216,0.024,0.448,0.082,0.696,0.174c0.248,0.092,0.478,0.226,0.69,0.402c0.212,0.176,0.388,0.4,0.528,0.672
			C13.014,14.299,13.084,14.623,13.084,14.999z M12.424,10.811c0-0.344-0.068-0.632-0.204-0.864
			c-0.136-0.232-0.316-0.416-0.54-0.552c-0.224-0.136-0.482-0.234-0.774-0.294s-0.598-0.09-0.918-0.09h-1.98v3.66h2.04
			c0.288,0,0.574-0.036,0.858-0.108c0.284-0.072,0.538-0.182,0.762-0.33c0.224-0.148,0.406-0.34,0.546-0.576
			C12.354,11.421,12.424,11.139,12.424,10.811z M12.82,15.035c0-0.384-0.078-0.712-0.234-0.984c-0.156-0.272-0.354-0.492-0.594-0.66
			c-0.24-0.168-0.504-0.29-0.792-0.366c-0.288-0.076-0.568-0.114-0.84-0.114H8.008v4.116h2.22c0.368,0,0.712-0.038,1.032-0.114
			c0.32-0.076,0.594-0.194,0.822-0.354s0.408-0.366,0.54-0.618C12.754,15.688,12.82,15.387,12.82,15.035z"/>
		<g>
			<path fill="#FFFFFF" d="M12.784,14.999c-0.128,1.922-1.961,1.968-3.416,1.968c-0.406,0-0.812,0-1.218,0
				c-0.595,0-0.107,0.045-0.107,0.231c0-1.393,0-2.787,0-4.18s0-2.787,0-4.18c0,0.194-0.483,0.231,0.123,0.231
				c0.399,0,0.798,0,1.197,0c0.232,0,0.464,0,0.696,0c2.279,0,3.187,2.723,0.82,3.395c-0.129,0.036-0.22,0.155-0.22,0.289
				c0,0.008,0,0.016,0,0.024c0,0.125,0.09,0.266,0.22,0.289C11.899,13.254,12.648,13.64,12.784,14.999
				c0.038,0.381,0.638,0.385,0.6,0c-0.128-1.289-0.764-2.059-2.008-2.448c0.284,0.089-0.362,0.669,0.372,0.241
				c0.29-0.169,0.361-0.224,0.619-0.438c0.468-0.387,0.574-1.018,0.622-1.58c0.229-2.71-3.571-2.304-5.244-2.304
				c-0.164,0-0.3,0.136-0.3,0.3c0,2.832,0,5.664,0,8.496c0,0.164,0.136,0.3,0.3,0.3c2.194,0,5.439,0.428,5.64-2.568
				C13.41,14.612,12.81,14.615,12.784,14.999z"/>
			<path fill="#FFFFFF" d="M12.724,10.811c-0.126-2.442-2.953-2.1-4.716-2.1c-0.164,0-0.3,0.136-0.3,0.3c0,1.22,0,2.44,0,3.66
				c0,0.164,0.136,0.3,0.3,0.3C9.774,12.97,12.588,13.263,12.724,10.811c0.021-0.387-0.579-0.385-0.6,0
				c-0.107,1.938-2.748,1.56-4.116,1.56c0.1,0.1,0.2,0.2,0.3,0.3c0-1.22,0-2.44,0-3.66c-0.1,0.1-0.2,0.2-0.3,0.3
				c1.355,0,4.018-0.403,4.116,1.5C12.144,11.195,12.744,11.197,12.724,10.811z"/>
			<path fill="#FFFFFF" d="M13.12,15.035c-0.145-2.747-3.132-2.424-5.112-2.424c-0.164,0-0.3,0.136-0.3,0.3c0,1.372,0,2.744,0,4.116
				c0,0.164,0.136,0.3,0.3,0.3C9.958,17.326,12.945,17.709,13.12,15.035c0.025-0.387-0.575-0.384-0.6,0
				c-0.14,2.135-2.977,1.692-4.512,1.692c0.1,0.1,0.2,0.2,0.3,0.3c0-1.372,0-2.744,0-4.116c-0.1,0.1-0.2,0.2-0.3,0.3
				c1.578,0,4.393-0.429,4.512,1.824C12.541,15.419,13.141,15.421,13.12,15.035z"/>
		</g>
	</g>
	<g>
		<path fill="#FFFFFF" d="M14.824,14.447c0,0.336,0.05,0.668,0.15,0.996c0.1,0.328,0.252,0.623,0.456,0.882
			c0.204,0.26,0.462,0.47,0.774,0.63s0.68,0.24,1.104,0.24c0.432,0,0.816-0.086,1.152-0.258c0.336-0.172,0.628-0.422,0.876-0.75
			l0.192,0.168c-0.272,0.352-0.59,0.62-0.954,0.804c-0.364,0.184-0.786,0.276-1.266,0.276c-0.408,0-0.78-0.074-1.116-0.222
			s-0.626-0.354-0.87-0.618c-0.244-0.264-0.432-0.58-0.564-0.948c-0.132-0.368-0.198-0.768-0.198-1.2c0-0.416,0.068-0.8,0.204-1.152
			c0.136-0.352,0.323-0.656,0.56-0.912c0.236-0.256,0.515-0.454,0.836-0.594c0.321-0.14,0.666-0.21,1.034-0.21
			c0.433,0,0.81,0.076,1.131,0.228c0.32,0.152,0.587,0.352,0.8,0.6c0.212,0.248,0.371,0.53,0.475,0.846
			c0.104,0.316,0.156,0.638,0.156,0.966v0.228H14.824z M19.492,14.219c-0.008-0.36-0.07-0.688-0.186-0.984
			c-0.116-0.295-0.274-0.55-0.474-0.762c-0.2-0.212-0.44-0.376-0.72-0.492c-0.28-0.116-0.592-0.174-0.936-0.174
			c-0.416,0-0.772,0.086-1.068,0.258c-0.296,0.172-0.538,0.384-0.726,0.636s-0.326,0.516-0.414,0.792s-0.132,0.518-0.132,0.726
			H19.492z"/>
		<g>
			<path fill="#FFFFFF" d="M14.524,14.447c0.055,1.099,0.486,2.348,1.601,2.797c1.262,0.51,2.555,0.189,3.423-0.845
				c-0.141,0-0.283,0-0.424,0c0.064,0.056,0.128,0.112,0.192,0.168c0-0.141,0-0.283,0-0.424c-0.724,0.845-1.591,1.124-2.696,0.904
				c-1.489-0.296-1.904-2.043-1.68-3.31c0.254-1.435,1.668-2.029,2.965-1.768c1.157,0.233,1.551,1.468,1.551,2.478
				c0.1-0.1,0.2-0.2,0.3-0.3c-1.644,0-3.288,0-4.932,0c-0.387,0-0.387,0.6,0,0.6c1.644,0,3.288,0,4.932,0c0.164,0,0.3-0.136,0.3-0.3
				c0-1.169-0.452-2.482-1.651-2.929c-1.623-0.605-3.188,0.064-3.899,1.625c-1.521,3.338,2.864,6.193,5.235,3.423
				c0.101-0.117,0.13-0.311,0-0.424c-0.064-0.056-0.128-0.112-0.192-0.168c-0.114-0.101-0.314-0.131-0.424,0
				c-1.524,1.815-3.891,0.654-4-1.528C15.105,14.062,14.505,14.06,14.524,14.447z"/>
			<path fill="#FFFFFF" d="M19.792,14.219c-0.094-1.554-1.035-2.621-2.616-2.712c-1.505-0.087-2.548,1.344-2.64,2.712
				c-0.011,0.164,0.145,0.3,0.3,0.3c1.552,0,3.104,0,4.656,0c0.387,0,0.387-0.6,0-0.6c-1.552,0-3.104,0-4.656,0
				c0.1,0.1,0.2,0.2,0.3,0.3c0.181-2.7,3.891-2.731,4.056,0C19.215,14.603,19.815,14.605,19.792,14.219z"/>
		</g>
	</g>
	<g>
		<path fill="#FFFFFF" d="M22,13.199c0.08-0.256,0.194-0.484,0.342-0.684c0.148-0.2,0.318-0.37,0.51-0.51
			c0.192-0.14,0.4-0.246,0.624-0.318c0.224-0.072,0.456-0.108,0.696-0.108c0.384,0,0.704,0.068,0.96,0.204
			c0.256,0.136,0.46,0.316,0.612,0.54s0.26,0.476,0.324,0.756c0.064,0.28,0.096,0.564,0.096,0.852v3.336H25.9v-3.312
			c0-0.224-0.024-0.464-0.072-0.72c-0.048-0.256-0.138-0.488-0.27-0.696c-0.132-0.208-0.31-0.382-0.534-0.522
			c-0.224-0.14-0.508-0.21-0.852-0.21c-0.304,0-0.59,0.062-0.858,0.186c-0.268,0.124-0.5,0.302-0.696,0.534
			c-0.196,0.232-0.352,0.514-0.468,0.846c-0.116,0.332-0.174,0.71-0.174,1.134v2.76h-0.264V8.195h0.264v5.004H22z"/>
		<g>
			<path fill="#FFFFFF" d="M22.29,13.278c0.539-1.347,2.765-2.357,3.49-0.12c0.108,0.336,0.085,0.796,0.085,1.167
				c0,0.849,0,1.699,0,2.548c0,0.776,0.336-0.344,0.336,0.346c0-0.306,0-0.611,0-0.917c0-0.782,0-1.564,0-2.346
				c0-1.328-0.975-2.92-2.55-2.391c-1.837,0.617-1.974,2.289-1.974,3.981c0,0.43,0,0.86,0,1.291c0,0.817,0.336-0.32,0.336,0.413
				c0-0.422,0-0.845,0-1.267c0-1.881,0-3.762,0-5.644c0-0.621,0-1.241,0-1.862c0-0.49,0.039,0.02-0.168,0.02
				c-0.231,0-0.168-0.47-0.168,0.176c0,1.509,0,3.019,0,4.528c0,0.164,0.136,0.3,0.3,0.3c0.008,0,0.016,0,0.024,0
				c0.387,0,0.387-0.6,0-0.6c0.398,0,0.275,0.374,0.275-0.416c0-0.536,0-1.072,0-1.607c0-0.894,0-1.787,0-2.681
				c0-0.164-0.136-0.3-0.3-0.3c-0.088,0-0.176,0-0.264,0c-0.164,0-0.3,0.136-0.3,0.3c0,3.024,0,6.048,0,9.072
				c0,0.164,0.136,0.3,0.3,0.3c0.088,0,0.176,0,0.264,0c0.164,0,0.3-0.136,0.3-0.3c0-1.418-0.12-7.114,2.838-4.802
				c0.958,0.749,0.487,3.753,0.487,4.802c0,0.164,0.136,0.3,0.3,0.3c0.088,0,0.176,0,0.264,0c0.164,0,0.3-0.136,0.3-0.3
				c0-1.608,0.338-3.632-0.46-5.095c-1.069-1.957-3.691-0.555-4.292,0.948C21.567,13.479,22.148,13.633,22.29,13.278z"/>
		</g>
	</g>
	<g>
		<path fill="#FFFFFF" d="M32.332,16.019c0,0.208,0.01,0.43,0.03,0.666c0.02,0.236,0.042,0.43,0.066,0.582h-0.252
			c-0.016-0.08-0.028-0.178-0.036-0.294c-0.008-0.116-0.018-0.236-0.03-0.36c-0.012-0.124-0.02-0.246-0.024-0.366
			s-0.006-0.22-0.006-0.3h-0.036c-0.16,0.504-0.436,0.878-0.828,1.122c-0.392,0.244-0.812,0.366-1.26,0.366
			c-0.224,0-0.446-0.032-0.666-0.096c-0.22-0.064-0.418-0.16-0.594-0.288s-0.318-0.292-0.426-0.492
			c-0.108-0.2-0.162-0.436-0.162-0.708c0-0.392,0.102-0.708,0.306-0.948c0.204-0.24,0.458-0.426,0.762-0.558
			c0.304-0.132,0.63-0.218,0.978-0.258c0.348-0.04,0.666-0.06,0.954-0.06h0.96v-0.444c0-0.616-0.164-1.066-0.492-1.35
			c-0.328-0.284-0.756-0.426-1.284-0.426c-0.328,0-0.634,0.06-0.918,0.18c-0.284,0.12-0.538,0.28-0.762,0.48l-0.144-0.204
			c0.256-0.224,0.546-0.394,0.87-0.51c0.324-0.116,0.642-0.174,0.954-0.174c0.632,0,1.13,0.162,1.494,0.486
			c0.364,0.324,0.546,0.834,0.546,1.53V16.019z M32.068,14.254h-0.852c-0.304,0-0.624,0.018-0.96,0.054s-0.644,0.11-0.924,0.222
			c-0.28,0.112-0.51,0.272-0.69,0.48c-0.18,0.208-0.27,0.488-0.27,0.84c0,0.256,0.05,0.47,0.15,0.642s0.228,0.31,0.384,0.414
			c0.156,0.104,0.328,0.18,0.516,0.228c0.188,0.048,0.366,0.072,0.534,0.072c0.408,0,0.748-0.076,1.02-0.228
			c0.271-0.152,0.49-0.346,0.654-0.582c0.164-0.236,0.278-0.496,0.342-0.78s0.096-0.562,0.096-0.834V14.254z"/>
		<g>
			<path fill="#FFFFFF" d="M32.032,16.019c0.009,0.419,0.041,0.832,0.096,1.248c0.1-0.1,0.2-0.2,0.3-0.3c-0.084,0-0.168,0-0.252,0
				c0.1,0.1,0.2,0.2,0.3,0.3c-0.053-0.439-0.087-0.877-0.096-1.32c-0.003-0.164-0.134-0.3-0.3-0.3c-0.012,0-0.024,0-0.036,0
				c-0.144,0-0.241,0.094-0.289,0.22c-0.315,0.82-0.939,1.208-1.799,1.268c-0.774,0.023-1.29-0.405-1.548-1.284
				c-0.1-0.94,0.853-1.252,1.485-1.419c0.681-0.179,1.473-0.105,2.175-0.105c0.164,0,0.3-0.136,0.3-0.3
				c0-0.943-0.099-1.672-0.905-2.239c-0.941-0.662-2.275-0.161-3.062,0.468c0.157,0.02,0.314,0.04,0.471,0.061
				c-0.048-0.068-0.096-0.136-0.144-0.204c-0.036,0.137-0.072,0.273-0.108,0.411c1.454-1.121,3.413-0.732,3.413,1.296
				C32.032,14.552,32.032,15.285,32.032,16.019c0,0.387,0.6,0.387,0.6,0c0-1.103,0.154-2.335-0.147-3.408
				c-0.507-1.809-3.034-1.481-4.168-0.607c-0.121,0.093-0.21,0.265-0.108,0.411c0.048,0.068,0.096,0.136,0.144,0.204
				c0.12,0.17,0.312,0.188,0.471,0.061c0.689-0.549,1.49-0.746,2.336-0.374c0.687,0.302,0.608,1.134,0.608,1.721
				c0.1-0.1,0.2-0.2,0.3-0.3c-1.775,0-4.48,0.053-4.219,2.505c0.11,1.034,1.231,1.44,2.107,1.503
				c0.585,0.042,1.175-0.234,1.632-0.569c0.132-0.096,0.897-0.919,0.492-0.919c-0.1-0.1-0.2-0.2-0.3-0.3
				c0.008,0.442,0.042,0.881,0.096,1.32c0.02,0.162,0.122,0.3,0.3,0.3c0.084,0,0.168,0,0.252,0c0.147,0,0.322-0.137,0.3-0.3
				c-0.055-0.416-0.086-0.829-0.096-1.248C32.623,15.632,32.023,15.631,32.032,16.019z"/>
			<path fill="#FFFFFF" d="M32.068,13.955c-0.945,0-2.01-0.089-2.887,0.317c-0.994,0.46-1.466,1.567-0.809,2.533
				c0.63,0.925,2.11,0.839,2.949,0.311c0.977-0.614,1.046-1.83,1.046-2.861c0-0.387-0.6-0.387-0.6,0
				c0,0.623,0.002,1.235-0.284,1.809c-0.475,0.955-2.079,1.195-2.703,0.278c-0.379-0.557,0.043-1.179,0.501-1.458
				c0.419-0.256,0.993-0.282,1.465-0.315c0.438-0.03,0.882-0.014,1.32-0.014C32.455,14.554,32.455,13.955,32.068,13.955z"/>
		</g>
	</g>
	<g>
		<path fill="#FFFFFF" d="M35.344,12.515c0.152-0.2,0.324-0.37,0.516-0.51c0.192-0.14,0.4-0.246,0.624-0.318
			c0.224-0.072,0.456-0.108,0.696-0.108c0.384,0,0.704,0.068,0.96,0.204c0.256,0.136,0.46,0.316,0.612,0.54s0.26,0.476,0.324,0.756
			c0.064,0.28,0.096,0.564,0.096,0.852v3.336h-0.264v-3.312c0-0.224-0.024-0.464-0.072-0.72c-0.048-0.256-0.138-0.488-0.27-0.696
			s-0.31-0.382-0.534-0.522c-0.224-0.14-0.508-0.21-0.852-0.21c-0.304,0-0.59,0.062-0.858,0.186s-0.5,0.302-0.696,0.534
			c-0.196,0.232-0.352,0.514-0.468,0.846c-0.116,0.332-0.174,0.71-0.174,1.134v2.76H34.72v-4.128c0-0.088-0.002-0.196-0.006-0.324
			c-0.004-0.128-0.008-0.258-0.012-0.39c-0.004-0.132-0.01-0.258-0.018-0.378c-0.008-0.12-0.016-0.22-0.024-0.3h0.264
			c0.008,0.08,0.014,0.18,0.018,0.3c0.004,0.12,0.008,0.25,0.012,0.39c0.004,0.14,0.008,0.276,0.012,0.408
			c0.004,0.132,0.006,0.25,0.006,0.354h0.024C35.076,12.943,35.192,12.715,35.344,12.515z"/>
		<g>
			<path fill="#FFFFFF" d="M35.556,12.727c1-1.142,2.762-1.177,3.231,0.432c0.137,0.469,0.085,1.078,0.085,1.571
				c0,0.846,0,1.692,0,2.538c0.1-0.1,0.2-0.2,0.3-0.3c-0.088,0-0.176,0-0.264,0c0.1,0.1,0.2,0.2,0.3,0.3
				c0-1.533,0.654-5.566-1.704-5.736c-3.224-0.233-2.82,3.583-2.82,5.736c0.1-0.1,0.2-0.2,0.3-0.3c-0.088,0-0.176,0-0.264,0
				c0.1,0.1,0.2,0.2,0.3,0.3c0-1.833,0.086-3.691-0.06-5.52c-0.1,0.1-0.2,0.2-0.3,0.3c0.088,0,0.176,0,0.264,0
				c-0.1-0.1-0.2-0.2-0.3-0.3c0.029,0.483,0.04,0.968,0.048,1.452c0.003,0.164,0.134,0.3,0.3,0.3c0.008,0,0.016,0,0.024,0
				c0.145,0,0.238-0.094,0.289-0.22c0.106-0.204,0.212-0.408,0.318-0.612c0.206-0.329-0.313-0.63-0.519-0.303
				c0.06-0.096-0.458,0.536-0.112,0.536c0.1,0.1,0.2,0.2,0.3,0.3c-0.008-0.484-0.019-0.969-0.048-1.452
				c-0.01-0.163-0.129-0.3-0.3-0.3c-0.088,0-0.176,0-0.264,0c-0.154,0-0.313,0.137-0.3,0.3c0.146,1.829,0.06,3.687,0.06,5.52
				c0,0.164,0.136,0.3,0.3,0.3c0.088,0,0.176,0,0.264,0c0.164,0,0.3-0.136,0.3-0.3c0-1.698-0.518-4.993,1.896-5.16
				c1.972-0.137,1.428,3.931,1.428,5.16c0,0.164,0.136,0.3,0.3,0.3c0.088,0,0.176,0,0.264,0c0.164,0,0.3-0.136,0.3-0.3
				c0-1.244,0.174-2.614-0.034-3.845c-0.382-2.248-2.802-2.836-4.306-1.119C34.878,12.592,35.3,13.019,35.556,12.727z"/>
		</g>
	</g>
	<g>
		<path fill="#FFFFFF" d="M45.484,12.491c-0.208-0.216-0.452-0.384-0.732-0.504c-0.28-0.12-0.572-0.18-0.876-0.18
			c-0.392,0-0.744,0.074-1.056,0.222s-0.578,0.346-0.798,0.594c-0.22,0.248-0.39,0.536-0.51,0.864s-0.18,0.672-0.18,1.032
			s0.06,0.704,0.18,1.032s0.29,0.614,0.51,0.858c0.22,0.244,0.486,0.438,0.798,0.582s0.664,0.216,1.056,0.216
			c0.304,0,0.602-0.052,0.894-0.156s0.546-0.26,0.762-0.468l0.18,0.168c-0.24,0.24-0.522,0.414-0.846,0.522s-0.654,0.162-0.99,0.162
			c-0.408,0-0.782-0.072-1.122-0.216c-0.34-0.144-0.636-0.344-0.888-0.6s-0.448-0.564-0.588-0.924c-0.14-0.36-0.21-0.752-0.21-1.176
			c0-0.424,0.07-0.816,0.21-1.176c0.14-0.36,0.336-0.67,0.588-0.93c0.252-0.26,0.548-0.464,0.888-0.612
			c0.34-0.148,0.714-0.222,1.122-0.222c0.352,0,0.686,0.064,1.002,0.192c0.316,0.128,0.586,0.308,0.81,0.54L45.484,12.491z"/>
		<g>
			<path fill="#FFFFFF" d="M45.696,12.279c-1.966-1.788-4.529-0.162-4.664,2.24c-0.144,2.535,2.864,3.817,4.712,2.276
				c-0.141,0-0.283,0-0.424,0c0.06,0.056,0.12,0.112,0.18,0.168c0-0.141,0-0.283,0-0.424c-1.749,1.5-4.015,0.057-4.132-2.02
				c-0.123-2.188,2.504-3.436,4.108-1.996c0-0.141,0-0.283,0-0.424c-0.068,0.06-0.136,0.12-0.204,0.18
				c-0.291,0.257,0.135,0.679,0.424,0.424c0.068-0.06,0.136-0.12,0.204-0.18c0.118-0.104,0.117-0.319,0-0.424
				c-2.137-1.919-4.984-0.198-5.131,2.42c-0.155,2.739,3.174,4.145,5.156,2.444c0.121-0.104,0.113-0.319,0-0.424
				c-0.06-0.056-0.12-0.112-0.18-0.168c-0.127-0.119-0.295-0.108-0.424,0c-1.604,1.338-3.582,0.028-3.688-1.852
				c-0.11-1.96,2.189-3.134,3.641-1.816C45.557,12.962,45.983,12.54,45.696,12.279z"/>
		</g>
	</g>
	<g>
		<path fill="#FFFFFF" d="M47.091,14.447c0,0.336,0.05,0.668,0.15,0.996c0.1,0.328,0.252,0.623,0.456,0.882
			c0.204,0.26,0.462,0.47,0.774,0.63s0.68,0.24,1.104,0.24c0.432,0,0.816-0.086,1.152-0.258c0.336-0.172,0.628-0.422,0.876-0.75
			l0.191,0.168c-0.271,0.352-0.59,0.62-0.954,0.804s-0.786,0.276-1.266,0.276c-0.408,0-0.78-0.074-1.116-0.222
			s-0.626-0.354-0.87-0.618c-0.244-0.264-0.432-0.58-0.564-0.948c-0.132-0.368-0.198-0.768-0.198-1.2c0-0.416,0.068-0.8,0.204-1.152
			c0.136-0.352,0.323-0.656,0.56-0.912c0.236-0.256,0.515-0.454,0.836-0.594c0.321-0.14,0.666-0.21,1.034-0.21
			c0.433,0,0.81,0.076,1.131,0.228c0.32,0.152,0.587,0.352,0.8,0.6c0.211,0.248,0.371,0.53,0.475,0.846
			c0.104,0.316,0.156,0.638,0.156,0.966v0.228H47.091z M51.76,14.219c-0.008-0.36-0.07-0.688-0.186-0.984
			c-0.117-0.295-0.275-0.55-0.475-0.762c-0.2-0.212-0.44-0.376-0.72-0.492c-0.28-0.116-0.592-0.174-0.936-0.174
			c-0.416,0-0.772,0.086-1.068,0.258c-0.296,0.172-0.538,0.384-0.726,0.636s-0.326,0.516-0.414,0.792s-0.132,0.518-0.132,0.726
			H51.76z"/>
		<g>
			<path fill="#FFFFFF" d="M46.792,14.447c0.055,1.099,0.486,2.348,1.601,2.797c1.262,0.51,2.555,0.189,3.423-0.845
				c-0.142,0-0.282,0-0.424,0c0.063,0.056,0.127,0.112,0.191,0.168c0-0.141,0-0.283,0-0.424c-0.723,0.845-1.59,1.124-2.696,0.904
				c-1.489-0.296-1.904-2.043-1.68-3.31c0.254-1.435,1.668-2.029,2.965-1.768c1.157,0.233,1.551,1.468,1.551,2.478
				c0.1-0.1,0.2-0.2,0.3-0.3c-1.644,0-3.288,0-4.932,0c-0.387,0-0.387,0.6,0,0.6c1.644,0,3.288,0,4.932,0c0.163,0,0.3-0.136,0.3-0.3
				c0-1.169-0.452-2.482-1.651-2.929c-1.623-0.605-3.188,0.064-3.899,1.625c-1.521,3.337,2.864,6.195,5.234,3.423
				c0.101-0.118,0.13-0.31,0-0.424c-0.063-0.056-0.127-0.112-0.191-0.168c-0.114-0.101-0.314-0.131-0.424,0
				c-1.524,1.815-3.891,0.654-4-1.528C47.372,14.062,46.772,14.06,46.792,14.447z"/>
			<path fill="#FFFFFF" d="M52.06,14.219c-0.095-1.554-1.035-2.621-2.616-2.712c-1.505-0.087-2.548,1.344-2.64,2.712
				c-0.011,0.164,0.145,0.3,0.3,0.3c1.552,0,3.104,0,4.656,0c0.387,0,0.387-0.6,0-0.6c-1.552,0-3.104,0-4.656,0
				c0.1,0.1,0.2,0.2,0.3,0.3c0.181-2.7,3.891-2.73,4.057,0C51.483,14.603,52.083,14.605,52.06,14.219z"/>
		</g>
	</g>
	<g>
		<path fill="#FFFFFF" d="M13.342,31.589c-0.548,0.212-1.106,0.318-1.674,0.318c-0.64,0-1.224-0.112-1.752-0.336
			c-0.528-0.224-0.984-0.534-1.368-0.93c-0.384-0.396-0.682-0.87-0.894-1.422c-0.212-0.552-0.318-1.152-0.318-1.8
			s0.106-1.248,0.318-1.8c0.212-0.552,0.51-1.026,0.894-1.422c0.384-0.396,0.842-0.706,1.374-0.93
			c0.532-0.224,1.114-0.336,1.746-0.336c0.528,0,1.042,0.09,1.542,0.27c0.5,0.18,0.926,0.454,1.278,0.822l-0.168,0.192
			c-0.168-0.176-0.358-0.33-0.57-0.462s-0.436-0.242-0.672-0.33c-0.236-0.088-0.474-0.152-0.714-0.192
			c-0.24-0.04-0.472-0.06-0.696-0.06c-0.608,0-1.162,0.11-1.662,0.33c-0.5,0.22-0.928,0.522-1.284,0.906
			c-0.356,0.384-0.632,0.834-0.828,1.35C7.698,26.273,7.6,26.827,7.6,27.419c0,0.592,0.096,1.146,0.288,1.662
			s0.466,0.966,0.822,1.35c0.356,0.384,0.784,0.686,1.284,0.906c0.5,0.22,1.058,0.33,1.674,0.33c0.528,0,1.05-0.102,1.566-0.306
			c0.516-0.204,0.942-0.51,1.278-0.918l0.192,0.18C14.344,31.055,13.89,31.377,13.342,31.589z"/>
		<g>
			<path fill="#FFFFFF" d="M13.263,31.3c-3.483,1.116-6.112-1.547-5.496-5.033c0.261-1.477,1.445-2.441,2.784-2.897
				c0.691-0.174,1.382-0.184,2.075-0.029c-0.324-0.057,1.973,0.724,1.638,0.415c-1.639-1.51-4.283-0.941-5.753,0.44
				C6.574,26.013,7.105,29.337,8.878,31c0.883,0.829,2.166,1.007,3.316,0.933c0.605-0.039,1.145-0.291,1.677-0.551
				c0.167-0.112,0.329-0.23,0.487-0.353c0.61-0.624-1.106,0.271-1.167,0.3c-0.349,0.168-0.044,0.685,0.303,0.519
				c0.583-0.281,0.976-0.562,1.422-1.013c0.112-0.113,0.12-0.312,0-0.424c-0.064-0.06-0.128-0.12-0.192-0.18
				c-0.118-0.111-0.307-0.12-0.424,0c-1.271,1.298-3.056,1.417-4.631,0.6c-1.597-0.829-1.93-2.878-1.649-4.465
				c0.495-2.797,4.114-3.757,6.088-1.938c0.114,0.105,0.313,0.127,0.424,0c0.056-0.064,0.112-0.128,0.168-0.192
				c0.103-0.117,0.128-0.31,0-0.424c-2.651-2.368-6.507-0.931-7.512,2.296c-1.229,3.944,2.654,6.918,6.234,5.771
				C13.789,31.761,13.632,31.181,13.263,31.3z"/>
		</g>
	</g>
	<g>
		<path fill="#FFFFFF" d="M21.532,28.895c0,0.432-0.07,0.828-0.21,1.188c-0.14,0.36-0.338,0.67-0.594,0.93
			c-0.256,0.26-0.562,0.462-0.918,0.606s-0.746,0.216-1.17,0.216c-0.424,0-0.812-0.072-1.164-0.216s-0.656-0.346-0.912-0.606
			c-0.256-0.26-0.454-0.57-0.594-0.93c-0.14-0.36-0.21-0.756-0.21-1.188s0.07-0.826,0.21-1.182c0.14-0.356,0.338-0.662,0.594-0.918
			c0.256-0.256,0.56-0.456,0.912-0.6s0.74-0.216,1.164-0.216c0.424,0,0.814,0.072,1.17,0.216s0.662,0.344,0.918,0.6
			c0.256,0.256,0.454,0.562,0.594,0.918C21.462,28.069,21.532,28.463,21.532,28.895z M21.268,28.895c0-0.368-0.06-0.716-0.18-1.044
			c-0.12-0.328-0.294-0.614-0.522-0.858s-0.504-0.436-0.828-0.576c-0.324-0.14-0.69-0.21-1.098-0.21s-0.772,0.07-1.092,0.21
			c-0.32,0.14-0.594,0.332-0.822,0.576s-0.402,0.53-0.522,0.858s-0.18,0.676-0.18,1.044c0,0.376,0.06,0.728,0.18,1.056
			s0.294,0.614,0.522,0.858s0.502,0.438,0.822,0.582c0.32,0.144,0.684,0.216,1.092,0.216s0.774-0.072,1.098-0.216
			c0.324-0.144,0.6-0.338,0.828-0.582s0.402-0.53,0.522-0.858C21.208,29.623,21.268,29.271,21.268,28.895z"/>
		<g>
			<path fill="#FFFFFF" d="M21.232,28.895c-0.191,3.428-4.982,3.431-5.172,0c-0.085-1.549,1.151-2.533,2.58-2.616
				C20.203,26.188,21.153,27.477,21.232,28.895c0.021,0.385,0.622,0.387,0.6,0c-0.232-4.171-6.14-4.173-6.372,0
				c-0.105,1.89,1.431,3.138,3.18,3.24c1.909,0.111,3.096-1.508,3.192-3.24C21.854,28.508,21.253,28.51,21.232,28.895z"/>
			<path fill="#FFFFFF" d="M21.568,28.895c-0.096-1.742-1.174-2.884-2.928-2.988c-1.907-0.113-2.989,1.657-2.896,3.356
				c0.085,1.569,1.421,2.577,2.896,2.644C20.393,31.986,21.481,30.497,21.568,28.895c0.021-0.387-0.579-0.385-0.6,0
				c-0.148,2.724-3.771,3.338-4.575,0.64c-0.981-3.294,4.376-4.228,4.575-0.64C20.989,29.28,21.589,29.282,21.568,28.895z"/>
		</g>
	</g>
	<g>
		<path fill="#FFFFFF" d="M23.5,31.667v-9.072h0.264v9.072H23.5z"/>
		<g>
			<path fill="#FFFFFF" d="M23.8,31.667c0-1.512,0-3.024,0-4.536c0-0.994,0-1.988,0-2.981c0-0.375,0-0.75,0-1.125
				c0-0.629,0.056-0.13-0.168-0.13c-0.207,0-0.168-0.51-0.168-0.02c0,0.335,0,0.67,0,1.005c0,1.083,0,2.167,0,3.25
				c0,1.083,0,2.167,0,3.25c0,0.335,0,0.67,0,1.005c0,0.492,0.23-0.02,0.036-0.02c-0.387,0-0.387,0.6,0,0.6c0.088,0,0.176,0,0.264,0
				c0.164,0,0.3-0.136,0.3-0.3c0-3.024,0-6.048,0-9.072c0-0.164-0.136-0.3-0.3-0.3c-0.088,0-0.176,0-0.264,0
				c-0.164,0-0.3,0.136-0.3,0.3c0,3.024,0,6.048,0,9.072C23.2,32.054,23.8,32.054,23.8,31.667z"/>
		</g>
	</g>
	<g>
		<path fill="#FFFFFF" d="M26.212,31.667v-9.072h0.264v9.072H26.212z"/>
		<g>
			<path fill="#FFFFFF" d="M26.512,31.667c0-1.512,0-3.024,0-4.536c0-0.994,0-1.988,0-2.981c0-0.375,0-0.75,0-1.125
				c0-0.629,0.056-0.13-0.168-0.13c-0.207,0-0.168-0.51-0.168-0.02c0,0.335,0,0.67,0,1.005c0,1.083,0,2.167,0,3.25
				c0,1.083,0,2.167,0,3.25c0,0.335,0,0.67,0,1.005c0,0.492,0.23-0.02,0.036-0.02c-0.387,0-0.387,0.6,0,0.6c0.088,0,0.176,0,0.264,0
				c0.164,0,0.3-0.136,0.3-0.3c0-3.024,0-6.048,0-9.072c0-0.164-0.136-0.3-0.3-0.3c-0.088,0-0.176,0-0.264,0
				c-0.164,0-0.3,0.136-0.3,0.3c0,3.024,0,6.048,0,9.072C25.912,32.054,26.512,32.054,26.512,31.667z"/>
		</g>
	</g>
	<g>
		<path fill="#FFFFFF" d="M32.716,30.419c0,0.208,0.01,0.43,0.03,0.666c0.02,0.236,0.042,0.43,0.066,0.582H32.56
			c-0.016-0.08-0.028-0.178-0.036-0.294c-0.008-0.116-0.018-0.236-0.03-0.36c-0.012-0.124-0.02-0.246-0.024-0.366
			s-0.006-0.22-0.006-0.3h-0.036c-0.16,0.504-0.436,0.878-0.828,1.122c-0.392,0.244-0.812,0.366-1.26,0.366
			c-0.224,0-0.446-0.032-0.666-0.096c-0.22-0.064-0.418-0.16-0.594-0.288s-0.318-0.292-0.426-0.492
			c-0.108-0.2-0.162-0.436-0.162-0.708c0-0.392,0.102-0.708,0.306-0.948c0.204-0.24,0.458-0.426,0.762-0.558
			c0.304-0.132,0.63-0.218,0.978-0.258c0.348-0.04,0.666-0.06,0.954-0.06h0.96v-0.444c0-0.616-0.164-1.066-0.492-1.35
			c-0.328-0.284-0.756-0.426-1.284-0.426c-0.328,0-0.634,0.06-0.918,0.18c-0.284,0.12-0.538,0.28-0.762,0.48l-0.144-0.204
			c0.256-0.224,0.546-0.394,0.87-0.51c0.324-0.116,0.642-0.174,0.954-0.174c0.632,0,1.13,0.162,1.494,0.486
			c0.364,0.324,0.546,0.834,0.546,1.53V30.419z M32.452,28.655H31.6c-0.304,0-0.624,0.018-0.96,0.054s-0.644,0.11-0.924,0.222
			c-0.28,0.112-0.51,0.272-0.69,0.48c-0.18,0.208-0.27,0.488-0.27,0.84c0,0.256,0.05,0.47,0.15,0.642s0.228,0.31,0.384,0.414
			c0.156,0.104,0.328,0.18,0.516,0.228c0.188,0.048,0.366,0.072,0.534,0.072c0.408,0,0.748-0.076,1.02-0.228
			c0.271-0.152,0.49-0.346,0.654-0.582c0.164-0.236,0.278-0.496,0.342-0.78s0.096-0.562,0.096-0.834V28.655z"/>
		<g>
			<path fill="#FFFFFF" d="M32.416,30.419c0.009,0.419,0.041,0.832,0.096,1.248c0.1-0.1,0.2-0.2,0.3-0.3c-0.084,0-0.168,0-0.252,0
				c0.1,0.1,0.2,0.2,0.3,0.3c-0.053-0.439-0.087-0.877-0.096-1.32c-0.003-0.164-0.134-0.3-0.3-0.3c-0.012,0-0.024,0-0.036,0
				c-0.144,0-0.241,0.094-0.289,0.22c-0.315,0.82-0.939,1.208-1.799,1.268c-0.774,0.023-1.29-0.405-1.548-1.284
				c-0.1-0.94,0.853-1.252,1.485-1.419c0.681-0.179,1.473-0.105,2.175-0.105c0.164,0,0.3-0.136,0.3-0.3
				c0-0.943-0.099-1.672-0.905-2.239c-0.941-0.662-2.275-0.161-3.062,0.468c0.157,0.02,0.314,0.04,0.471,0.061
				c-0.048-0.068-0.096-0.136-0.144-0.204c-0.036,0.137-0.072,0.273-0.108,0.411c1.454-1.121,3.413-0.732,3.413,1.296
				C32.416,28.952,32.416,29.686,32.416,30.419c0,0.387,0.6,0.387,0.6,0c0-1.103,0.154-2.335-0.147-3.408
				c-0.507-1.809-3.034-1.481-4.168-0.607c-0.121,0.093-0.21,0.265-0.108,0.411c0.048,0.068,0.096,0.136,0.144,0.204
				c0.12,0.17,0.312,0.188,0.471,0.061c0.689-0.549,1.49-0.746,2.336-0.374c0.687,0.302,0.608,1.134,0.608,1.721
				c0.1-0.1,0.2-0.2,0.3-0.3c-1.775,0-4.48,0.053-4.219,2.505c0.11,1.034,1.231,1.44,2.107,1.503
				c0.585,0.042,1.175-0.234,1.632-0.569c0.132-0.096,0.897-0.919,0.492-0.919c-0.1-0.1-0.2-0.2-0.3-0.3
				c0.008,0.442,0.042,0.881,0.096,1.32c0.02,0.162,0.122,0.3,0.3,0.3c0.084,0,0.168,0,0.252,0c0.147,0,0.322-0.137,0.3-0.3
				c-0.055-0.416-0.086-0.829-0.096-1.248C33.007,30.033,32.407,30.032,32.416,30.419z"/>
			<path fill="#FFFFFF" d="M32.452,28.355c-0.945,0-2.01-0.089-2.887,0.317c-0.994,0.46-1.466,1.567-0.809,2.533
				c0.63,0.925,2.11,0.839,2.949,0.311c0.977-0.614,1.046-1.83,1.046-2.861c0-0.387-0.6-0.387-0.6,0
				c0,0.623,0.002,1.235-0.284,1.809c-0.475,0.955-2.079,1.195-2.703,0.278c-0.379-0.557,0.043-1.179,0.501-1.458
				c0.419-0.256,0.993-0.282,1.465-0.315c0.438-0.03,0.882-0.014,1.32-0.014C32.838,28.955,32.838,28.355,32.452,28.355z"/>
		</g>
	</g>
	<g>
		<path fill="#FFFFFF" d="M35.38,27.647c0.239-0.552,0.581-0.968,1.023-1.248c0.443-0.28,0.928-0.42,1.455-0.42
			c0.407,0,0.78,0.074,1.12,0.222s0.63,0.352,0.874,0.612c0.243,0.26,0.431,0.57,0.562,0.93c0.132,0.36,0.198,0.752,0.198,1.176
			c0,0.416-0.068,0.802-0.204,1.158s-0.325,0.664-0.569,0.924c-0.243,0.26-0.535,0.464-0.874,0.612s-0.708,0.222-1.107,0.222
			c-0.263,0-0.521-0.036-0.772-0.108c-0.251-0.072-0.485-0.178-0.7-0.318c-0.216-0.14-0.412-0.312-0.587-0.516
			c-0.176-0.204-0.315-0.442-0.419-0.714h-0.036v1.488h-0.276v-9.072h0.276v5.052H35.38z M40.348,28.919
			c0-0.36-0.058-0.704-0.173-1.032c-0.116-0.328-0.282-0.616-0.497-0.864s-0.477-0.446-0.784-0.594s-0.652-0.222-1.035-0.222
			c-0.367,0-0.705,0.072-1.012,0.216s-0.573,0.338-0.796,0.582c-0.224,0.244-0.399,0.53-0.527,0.858
			c-0.127,0.328-0.191,0.676-0.191,1.044c0,0.368,0.064,0.716,0.191,1.044c0.128,0.328,0.304,0.614,0.527,0.858
			c0.223,0.244,0.489,0.438,0.796,0.582s0.645,0.216,1.012,0.216c0.383,0,0.728-0.072,1.035-0.216s0.569-0.338,0.784-0.582
			s0.381-0.53,0.497-0.858C40.29,29.623,40.348,29.279,40.348,28.919z"/>
		<g>
			<path fill="#FFFFFF" d="M35.639,27.798c0.384-0.942,1.124-1.449,2.219-1.52c2.504-0.228,2.764,2.682,2.047,4.145
				c-1.056,2.154-3.595,1.011-4.266-0.396c-0.044-0.093-0.161-0.148-0.259-0.148c-0.012,0-0.024,0-0.036,0
				c-0.164,0-0.3,0.136-0.3,0.3c0,0.301,0,0.602,0,0.902c0,0.849,0.324-0.022,0.324,0.566c0-0.443,0-0.886,0-1.33
				c0-1.826,0-3.653,0-5.479c0-0.649,0-1.299,0-1.949c0-0.505,0.04,0.005-0.162,0.005c-0.224,0-0.162-0.467-0.162,0.18
				c0,1.524,0,3.048,0,4.572c0,0.164,0.136,0.3,0.3,0.3c0.012,0,0.024,0,0.036,0c0.387,0,0.387-0.6,0-0.6
				c0.384,0,0.264,0.365,0.264-0.423c0-0.541,0-1.082,0-1.623c0-0.902,0-1.804,0-2.706c0-0.164-0.136-0.3-0.3-0.3
				c-0.092,0-0.184,0-0.276,0c-0.164,0-0.3,0.136-0.3,0.3c0,3.024,0,6.048,0,9.072c0,0.164,0.136,0.3,0.3,0.3
				c0.092,0,0.184,0,0.276,0c0.164,0,0.3-0.136,0.3-0.3c0-0.195,0-0.391,0-0.585c0-0.203,0-0.405,0-0.607
				c0.043-0.387-0.071-0.307-0.34,0.239c0.235,0.494,0.84,0.986,1.339,1.17c1.694,0.623,3.244-0.062,4.025-1.654
				c1.792-3.659-3.618-6.309-5.547-2.733C34.937,27.836,35.455,28.139,35.639,27.798z"/>
			<path fill="#FFFFFF" d="M40.647,28.919c-0.09-1.67-1.078-2.897-2.79-3.012c-1.687-0.113-2.739,1.517-2.826,3
				c-0.098,1.65,1.28,2.896,2.826,3C39.565,32.021,40.566,30.417,40.647,28.919c0.021-0.387-0.579-0.385-0.6,0
				c-0.071,1.315-0.811,2.299-2.19,2.388c-1.351,0.087-2.157-1.223-2.227-2.4c-0.077-1.31,0.988-2.317,2.227-2.4
				c1.371-0.092,2.125,1.229,2.19,2.412C40.068,29.304,40.668,29.306,40.647,28.919z"/>
		</g>
	</g>
	<g>
		<path fill="#FFFFFF" d="M47.872,28.895c0,0.432-0.07,0.828-0.21,1.188c-0.14,0.36-0.338,0.67-0.594,0.93
			c-0.256,0.26-0.562,0.462-0.918,0.606s-0.746,0.216-1.17,0.216c-0.424,0-0.812-0.072-1.164-0.216s-0.656-0.346-0.912-0.606
			c-0.256-0.26-0.454-0.57-0.594-0.93c-0.14-0.36-0.21-0.756-0.21-1.188s0.07-0.826,0.21-1.182c0.14-0.356,0.338-0.662,0.594-0.918
			c0.256-0.256,0.56-0.456,0.912-0.6s0.74-0.216,1.164-0.216c0.424,0,0.814,0.072,1.17,0.216s0.662,0.344,0.918,0.6
			c0.256,0.256,0.454,0.562,0.594,0.918C47.801,28.069,47.872,28.463,47.872,28.895z M47.607,28.895c0-0.368-0.06-0.716-0.18-1.044
			c-0.12-0.328-0.294-0.614-0.522-0.858s-0.504-0.436-0.828-0.576c-0.324-0.14-0.69-0.21-1.098-0.21s-0.772,0.07-1.092,0.21
			c-0.32,0.14-0.594,0.332-0.822,0.576s-0.402,0.53-0.522,0.858s-0.18,0.676-0.18,1.044c0,0.376,0.06,0.728,0.18,1.056
			s0.294,0.614,0.522,0.858s0.502,0.438,0.822,0.582c0.32,0.144,0.684,0.216,1.092,0.216s0.774-0.072,1.098-0.216
			c0.324-0.144,0.6-0.338,0.828-0.582s0.402-0.53,0.522-0.858C47.547,29.623,47.607,29.271,47.607,28.895z"/>
		<g>
			<path fill="#FFFFFF" d="M47.572,28.895c-0.191,3.428-4.982,3.431-5.172,0c-0.085-1.549,1.151-2.533,2.58-2.616
				C46.542,26.188,47.492,27.477,47.572,28.895c0.021,0.385,0.622,0.387,0.6,0c-0.232-4.171-6.14-4.173-6.372,0
				c-0.105,1.89,1.431,3.138,3.18,3.24c1.909,0.111,3.096-1.508,3.192-3.24C48.193,28.508,47.593,28.51,47.572,28.895z"/>
			<path fill="#FFFFFF" d="M47.907,28.895c-0.096-1.742-1.174-2.884-2.928-2.988c-1.907-0.113-2.989,1.657-2.896,3.356
				c0.085,1.569,1.421,2.577,2.896,2.644C46.732,31.986,47.82,30.497,47.907,28.895c0.021-0.387-0.579-0.385-0.6,0
				c-0.148,2.724-3.771,3.338-4.575,0.64c-0.981-3.294,4.376-4.228,4.575-0.64C47.329,29.28,47.929,29.282,47.907,28.895z"/>
		</g>
	</g>
	<g>
		<path fill="#FFFFFF" d="M50.919,26.357c0.352-0.252,0.732-0.378,1.14-0.378c0.04,0,0.075,0,0.107,0s0.068,0.004,0.108,0.012v0.228
			c-0.032-0.008-0.062-0.012-0.09-0.012c-0.028,0-0.051,0-0.066,0c-0.352,0-0.652,0.078-0.9,0.234
			c-0.248,0.156-0.452,0.36-0.611,0.612c-0.16,0.252-0.278,0.532-0.354,0.84c-0.076,0.308-0.114,0.614-0.114,0.918v2.856h-0.264
			v-4.128c0-0.088-0.002-0.196-0.006-0.324c-0.004-0.128-0.008-0.258-0.012-0.39c-0.004-0.132-0.01-0.258-0.018-0.378
			c-0.008-0.12-0.016-0.22-0.024-0.3h0.264c0.008,0.08,0.014,0.18,0.018,0.3c0.004,0.12,0.008,0.25,0.012,0.39
			c0.004,0.14,0.008,0.276,0.012,0.408c0.004,0.132,0.006,0.25,0.006,0.354h0.024C50.311,27.023,50.567,26.609,50.919,26.357z"/>
		<g>
			<path fill="#FFFFFF" d="M51.071,26.616c0.364-0.224,0.77-0.374,1.204-0.325c-0.1-0.1-0.2-0.2-0.3-0.3c0,0.076,0,0.152,0,0.228
				c0.1-0.1,0.2-0.2,0.3-0.3c-2.927-0.382-2.436,4.018-2.436,5.748c0.1-0.1,0.2-0.2,0.3-0.3c-0.088,0-0.176,0-0.264,0
				c0.1,0.1,0.2,0.2,0.3,0.3c0-1.833,0.086-3.691-0.06-5.52c-0.1,0.1-0.2,0.2-0.3,0.3c0.088,0,0.176,0,0.264,0
				c-0.1-0.1-0.2-0.2-0.3-0.3c0.029,0.483,0.04,0.968,0.048,1.452c0.003,0.164,0.134,0.3,0.3,0.3c0.008,0,0.016,0,0.024,0
				c0.139,0,0.247-0.092,0.289-0.22c0.153-0.464,0.322-0.794,0.691-1.11c0.295-0.251-0.132-0.674-0.424-0.424
				c-0.114,0.097-1.076,1.154-0.58,1.154c0.1,0.1,0.2,0.2,0.3,0.3c-0.008-0.484-0.019-0.969-0.048-1.452
				c-0.01-0.163-0.129-0.3-0.3-0.3c-0.088,0-0.176,0-0.264,0c-0.154,0-0.313,0.137-0.3,0.3c0.146,1.829,0.06,3.687,0.06,5.52
				c0,0.164,0.136,0.3,0.3,0.3c0.088,0,0.176,0,0.264,0c0.164,0,0.3-0.136,0.3-0.3c0-1.403-0.521-5.456,1.836-5.148
				c0.162,0.021,0.3-0.152,0.3-0.3c0-0.076,0-0.152,0-0.228c0-0.177-0.138-0.282-0.3-0.3c-0.554-0.062-1.043,0.122-1.507,0.406
				C50.439,26.3,50.74,26.819,51.071,26.616z"/>
		</g>
	</g>
	<g>
		<path fill="#FFFFFF" d="M57.291,30.419c0,0.208,0.011,0.43,0.03,0.666c0.02,0.236,0.042,0.43,0.066,0.582h-0.252
			c-0.017-0.08-0.028-0.178-0.036-0.294c-0.008-0.116-0.019-0.236-0.03-0.36s-0.02-0.246-0.024-0.366
			c-0.004-0.12-0.006-0.22-0.006-0.3h-0.036c-0.159,0.504-0.436,0.878-0.827,1.122c-0.393,0.244-0.812,0.366-1.261,0.366
			c-0.224,0-0.445-0.032-0.666-0.096c-0.22-0.064-0.418-0.16-0.594-0.288s-0.318-0.292-0.426-0.492
			c-0.108-0.2-0.162-0.436-0.162-0.708c0-0.392,0.102-0.708,0.306-0.948c0.204-0.24,0.458-0.426,0.763-0.558
			c0.304-0.132,0.63-0.218,0.978-0.258c0.348-0.04,0.666-0.06,0.954-0.06h0.96v-0.444c0-0.616-0.164-1.066-0.492-1.35
			c-0.328-0.284-0.756-0.426-1.284-0.426c-0.328,0-0.634,0.06-0.918,0.18c-0.283,0.12-0.538,0.28-0.762,0.48l-0.144-0.204
			c0.256-0.224,0.546-0.394,0.87-0.51c0.323-0.116,0.642-0.174,0.953-0.174c0.632,0,1.13,0.162,1.494,0.486
			c0.364,0.324,0.546,0.834,0.546,1.53V30.419z M57.027,28.655h-0.852c-0.305,0-0.624,0.018-0.96,0.054
			c-0.337,0.036-0.645,0.11-0.925,0.222c-0.279,0.112-0.51,0.272-0.689,0.48s-0.271,0.488-0.271,0.84c0,0.256,0.05,0.47,0.15,0.642
			c0.1,0.172,0.228,0.31,0.384,0.414s0.328,0.18,0.517,0.228c0.188,0.048,0.365,0.072,0.533,0.072c0.408,0,0.748-0.076,1.021-0.228
			c0.271-0.152,0.49-0.346,0.654-0.582c0.163-0.236,0.277-0.496,0.342-0.78c0.063-0.284,0.096-0.562,0.096-0.834V28.655z"/>
		<g>
			<path fill="#FFFFFF" d="M56.991,30.419c0.011,0.446,0.048,0.886,0.107,1.328c0.097-0.126,0.192-0.253,0.289-0.379
				c-0.084,0-0.168,0-0.252,0c0.1,0.1,0.2,0.2,0.3,0.3c-0.054-0.439-0.088-0.877-0.097-1.32c-0.003-0.164-0.134-0.3-0.3-0.3
				c-0.012,0-0.024,0-0.036,0c-0.144,0-0.241,0.094-0.289,0.22c-0.313,0.821-0.938,1.208-1.799,1.268
				c-0.774,0.023-1.29-0.405-1.548-1.284c-0.1-0.94,0.853-1.252,1.485-1.419c0.681-0.179,1.474-0.105,2.175-0.105
				c0.163,0,0.3-0.136,0.3-0.3c0-0.943-0.099-1.672-0.905-2.239c-0.941-0.662-2.275-0.162-3.062,0.468
				c0.157,0.02,0.313,0.04,0.471,0.061c-0.048-0.068-0.096-0.136-0.144-0.204c-0.035,0.137-0.071,0.273-0.107,0.411
				c1.453-1.121,3.412-0.731,3.412,1.296C56.991,28.952,56.991,29.686,56.991,30.419c0,0.387,0.6,0.387,0.6,0
				c0-1.104,0.153-2.335-0.146-3.408c-0.507-1.809-3.034-1.481-4.168-0.607c-0.12,0.093-0.21,0.265-0.107,0.411
				c0.048,0.068,0.096,0.136,0.144,0.204c0.119,0.17,0.312,0.188,0.471,0.061c0.688-0.55,1.49-0.746,2.336-0.374
				c0.687,0.302,0.608,1.134,0.608,1.721c0.1-0.1,0.2-0.2,0.3-0.3c-1.776,0-4.479,0.053-4.22,2.505
				c0.109,1.034,1.232,1.44,2.107,1.503c0.586,0.042,1.176-0.234,1.633-0.569c0.132-0.096,0.897-0.919,0.491-0.919
				c-0.1-0.1-0.2-0.2-0.3-0.3c0.009,0.442,0.043,0.881,0.097,1.32c0.02,0.162,0.121,0.3,0.3,0.3c0.084,0,0.168,0,0.252,0
				c0.215,0,0.314-0.19,0.289-0.379c-0.053-0.391-0.076-0.775-0.086-1.168C57.582,30.033,56.981,30.032,56.991,30.419z"/>
			<path fill="#FFFFFF" d="M57.027,28.355c-0.944,0-2.011-0.089-2.888,0.317c-0.994,0.461-1.465,1.566-0.809,2.533
				c0.629,0.926,2.111,0.838,2.949,0.311c0.978-0.614,1.047-1.83,1.047-2.861c0-0.387-0.6-0.387-0.6,0
				c0,0.624,0.002,1.235-0.283,1.809c-0.475,0.954-2.08,1.196-2.704,0.278c-0.378-0.557,0.043-1.179,0.502-1.458
				c0.42-0.256,0.993-0.282,1.465-0.315c0.438-0.03,0.882-0.014,1.32-0.014C57.414,28.955,57.414,28.355,57.027,28.355z"/>
		</g>
	</g>
	<g>
		<path fill="#FFFFFF" d="M61.311,31.775c-0.128,0.024-0.252,0.036-0.372,0.036c-0.432,0-0.739-0.122-0.924-0.366
			c-0.184-0.244-0.275-0.55-0.275-0.918v-4.152h-1.2v-0.228h1.188v-1.62h0.265v1.62h1.619v0.228h-1.619v4.152
			c0,0.376,0.092,0.646,0.275,0.81c0.185,0.164,0.428,0.246,0.732,0.246c0.224,0,0.428-0.036,0.611-0.108l0.036,0.204
			C61.551,31.719,61.438,31.751,61.311,31.775z"/>
		<g>
			<path fill="#FFFFFF" d="M61.311,31.475c-1.935,0.188-1.271-3.982-1.271-5.1c0-0.164-0.137-0.3-0.3-0.3c-0.4,0-0.8,0-1.2,0
				c0.1,0.1,0.2,0.2,0.3,0.3c0-0.076,0-0.152,0-0.228c-0.1,0.1-0.2,0.2-0.3,0.3c0.396,0,0.792,0,1.188,0c0.163,0,0.3-0.136,0.3-0.3
				c0-0.54,0-1.08,0-1.62c-0.1,0.1-0.2,0.2-0.3,0.3c0.088,0,0.177,0,0.265,0c-0.1-0.1-0.2-0.2-0.3-0.3c0,0.54,0,1.08,0,1.62
				c0,0.164,0.137,0.3,0.3,0.3c0.54,0,1.079,0,1.619,0c-0.1-0.1-0.2-0.2-0.3-0.3c0,0.076,0,0.152,0,0.228c0.1-0.1,0.2-0.2,0.3-0.3
				c-0.54,0-1.079,0-1.619,0c-0.163,0-0.3,0.136-0.3,0.3c0,1.612-0.897,6.195,1.999,5.389c-0.123-0.07-0.246-0.14-0.369-0.209
				c0.012,0.068,0.023,0.136,0.036,0.204c0.069-0.123,0.14-0.246,0.209-0.369c-0.111,0.032-0.224,0.063-0.336,0.096
				c-0.371,0.105-0.213,0.685,0.16,0.578c0.111-0.032,0.224-0.063,0.336-0.096c0.168-0.048,0.238-0.207,0.209-0.369
				c-0.012-0.068-0.023-0.136-0.036-0.204c-0.028-0.161-0.223-0.25-0.369-0.209c-1.892,0.526-1.239-3.991-1.239-4.811
				c-0.1,0.1-0.2,0.2-0.3,0.3c0.54,0,1.079,0,1.619,0c0.163,0,0.3-0.136,0.3-0.3c0-0.076,0-0.152,0-0.228c0-0.164-0.137-0.3-0.3-0.3
				c-0.54,0-1.079,0-1.619,0c0.1,0.1,0.2,0.2,0.3,0.3c0-0.54,0-1.08,0-1.62c0-0.164-0.137-0.3-0.3-0.3c-0.088,0-0.177,0-0.265,0
				c-0.163,0-0.3,0.136-0.3,0.3c0,0.54,0,1.08,0,1.62c0.1-0.1,0.2-0.2,0.3-0.3c-0.396,0-0.792,0-1.188,0c-0.163,0-0.3,0.136-0.3,0.3
				c0,0.076,0,0.152,0,0.228c0,0.164,0.137,0.3,0.3,0.3c0.4,0,0.8,0,1.2,0c-0.1-0.1-0.2-0.2-0.3-0.3c0,1.709-0.887,5.968,1.871,5.7
				C61.692,32.038,61.695,31.438,61.311,31.475z"/>
		</g>
	</g>
	<g>
		<path fill="#FFFFFF" d="M63.303,24.071c-0.072,0-0.137-0.028-0.192-0.084c-0.056-0.056-0.084-0.132-0.084-0.228
			c0-0.088,0.028-0.16,0.084-0.216c0.056-0.056,0.12-0.084,0.192-0.084c0.071,0,0.136,0.028,0.191,0.084
			c0.056,0.056,0.084,0.128,0.084,0.216c0,0.096-0.03,0.172-0.09,0.228C63.429,24.043,63.366,24.071,63.303,24.071z M63.17,31.667
			v-5.52h0.265v5.52H63.17z"/>
		<g>
			<path fill="#FFFFFF" d="M63.383,23.782c-0.054,0-0.106,0-0.16,0c-0.377,0.083-0.217,0.662,0.16,0.578
				c0.659-0.146,0.639-1.201-0.08-1.201c-0.717,0-0.747,1.064-0.08,1.201C63.601,24.438,63.762,23.859,63.383,23.782z"/>
			<path fill="#FFFFFF" d="M63.47,31.667c0-1.84,0-3.68,0-5.52c-0.1,0.1-0.2,0.2-0.3,0.3c0.088,0,0.177,0,0.265,0
				c-0.1-0.1-0.2-0.2-0.3-0.3c0,1.84,0,3.68,0,5.52c0.1-0.1,0.2-0.2,0.3-0.3c-0.088,0-0.177,0-0.265,0c-0.387,0-0.387,0.6,0,0.6
				c0.088,0,0.177,0,0.265,0c0.163,0,0.3-0.136,0.3-0.3c0-1.84,0-3.68,0-5.52c0-0.164-0.137-0.3-0.3-0.3c-0.088,0-0.177,0-0.265,0
				c-0.163,0-0.3,0.136-0.3,0.3c0,1.84,0,3.68,0,5.52C62.87,32.054,63.47,32.054,63.47,31.667z"/>
		</g>
	</g>
	<g>
		<path fill="#FFFFFF" d="M71.174,28.895c0,0.432-0.069,0.828-0.21,1.188c-0.14,0.36-0.338,0.67-0.594,0.93
			c-0.256,0.26-0.562,0.462-0.918,0.606c-0.356,0.144-0.746,0.216-1.17,0.216s-0.812-0.072-1.164-0.216
			c-0.353-0.144-0.656-0.346-0.912-0.606c-0.256-0.26-0.454-0.57-0.594-0.93c-0.141-0.36-0.21-0.756-0.21-1.188
			s0.069-0.826,0.21-1.182c0.14-0.356,0.338-0.662,0.594-0.918c0.256-0.256,0.56-0.456,0.912-0.6
			c0.352-0.144,0.74-0.216,1.164-0.216s0.813,0.072,1.17,0.216c0.355,0.144,0.662,0.344,0.918,0.6
			c0.256,0.256,0.454,0.562,0.594,0.918C71.104,28.069,71.174,28.463,71.174,28.895z M70.91,28.895c0-0.368-0.06-0.716-0.18-1.044
			s-0.294-0.614-0.522-0.858c-0.228-0.244-0.504-0.436-0.828-0.576c-0.323-0.14-0.689-0.21-1.098-0.21s-0.772,0.07-1.092,0.21
			c-0.32,0.14-0.594,0.332-0.822,0.576c-0.228,0.244-0.402,0.53-0.521,0.858c-0.12,0.328-0.181,0.676-0.181,1.044
			c0,0.376,0.061,0.728,0.181,1.056c0.119,0.328,0.294,0.614,0.521,0.858c0.229,0.244,0.502,0.438,0.822,0.582
			c0.319,0.144,0.684,0.216,1.092,0.216s0.774-0.072,1.098-0.216c0.324-0.144,0.601-0.338,0.828-0.582
			c0.229-0.244,0.402-0.53,0.522-0.858S70.91,29.271,70.91,28.895z"/>
		<g>
			<path fill="#FFFFFF" d="M70.874,28.895c-0.189,3.429-4.982,3.43-5.172,0c-0.085-1.549,1.15-2.533,2.58-2.616
				C69.845,26.188,70.795,27.477,70.874,28.895c0.021,0.385,0.621,0.387,0.6,0c-0.23-4.171-6.141-4.173-6.371,0
				c-0.104,1.891,1.431,3.138,3.18,3.24c1.909,0.111,3.096-1.508,3.191-3.24C71.495,28.508,70.896,28.51,70.874,28.895z"/>
			<path fill="#FFFFFF" d="M71.21,28.895c-0.096-1.742-1.174-2.884-2.928-2.988c-1.906-0.113-2.989,1.657-2.896,3.356
				c0.086,1.569,1.421,2.577,2.896,2.644C70.035,31.986,71.124,30.497,71.21,28.895c0.021-0.387-0.579-0.385-0.6,0
				c-0.147,2.725-3.771,3.337-4.574,0.64c-0.982-3.294,4.376-4.228,4.574-0.64C70.631,29.28,71.231,29.282,71.21,28.895z"/>
		</g>
	</g>
	<g>
		<path fill="#FFFFFF" d="M73.802,26.915c0.152-0.2,0.324-0.37,0.517-0.51c0.191-0.14,0.399-0.246,0.624-0.318
			c0.224-0.072,0.456-0.108,0.695-0.108c0.384,0,0.704,0.068,0.96,0.204s0.46,0.316,0.612,0.54s0.26,0.476,0.324,0.756
			c0.063,0.28,0.096,0.564,0.096,0.852v3.336h-0.264v-3.312c0-0.224-0.024-0.464-0.072-0.72c-0.048-0.256-0.138-0.488-0.27-0.696
			c-0.133-0.208-0.311-0.382-0.534-0.522c-0.225-0.14-0.509-0.21-0.853-0.21c-0.304,0-0.59,0.062-0.857,0.186
			c-0.269,0.124-0.5,0.302-0.696,0.534c-0.196,0.232-0.353,0.514-0.468,0.846c-0.116,0.332-0.174,0.71-0.174,1.134v2.76h-0.265
			v-4.128c0-0.088-0.002-0.196-0.006-0.324c-0.004-0.128-0.008-0.258-0.012-0.39c-0.004-0.132-0.011-0.258-0.019-0.378
			c-0.008-0.12-0.016-0.22-0.023-0.3h0.264c0.008,0.08,0.014,0.18,0.019,0.3c0.004,0.12,0.008,0.25,0.012,0.39
			c0.004,0.14,0.008,0.276,0.012,0.408c0.004,0.132,0.006,0.25,0.006,0.354h0.024C73.534,27.343,73.65,27.115,73.802,26.915z"/>
		<g>
			<path fill="#FFFFFF" d="M74.014,27.127c1-1.14,2.762-1.177,3.231,0.432c0.137,0.469,0.085,1.078,0.085,1.571
				c0,0.846,0,1.692,0,2.538c0.1-0.1,0.2-0.2,0.3-0.3c-0.088,0-0.176,0-0.264,0c0.1,0.1,0.2,0.2,0.3,0.3
				c0-1.534,0.654-5.566-1.704-5.736c-3.225-0.233-2.819,3.583-2.819,5.736c0.1-0.1,0.2-0.2,0.3-0.3c-0.088,0-0.177,0-0.265,0
				c0.1,0.1,0.2,0.2,0.3,0.3c0-1.833,0.084-3.69-0.06-5.52c-0.1,0.1-0.2,0.2-0.3,0.3c0.088,0,0.176,0,0.264,0
				c-0.1-0.1-0.2-0.2-0.3-0.3c0.029,0.483,0.04,0.968,0.048,1.452c0.003,0.164,0.134,0.3,0.3,0.3c0.008,0,0.017,0,0.024,0
				c0.146,0,0.238-0.094,0.289-0.22c0.106-0.204,0.212-0.408,0.317-0.612c0.206-0.329-0.313-0.63-0.518-0.303
				c0.061-0.097-0.458,0.536-0.113,0.536c0.1,0.1,0.2,0.2,0.3,0.3c-0.008-0.484-0.018-0.969-0.048-1.452
				c-0.01-0.163-0.129-0.3-0.3-0.3c-0.088,0-0.176,0-0.264,0c-0.154,0-0.312,0.137-0.3,0.3c0.143,1.83,0.06,3.687,0.06,5.52
				c0,0.164,0.137,0.3,0.3,0.3c0.088,0,0.177,0,0.265,0c0.163,0,0.3-0.136,0.3-0.3c0-1.698-0.518-4.993,1.896-5.16
				c1.973-0.137,1.429,3.93,1.429,5.16c0,0.164,0.137,0.3,0.3,0.3c0.088,0,0.176,0,0.264,0c0.163,0,0.3-0.136,0.3-0.3
				c0-1.244,0.174-2.614-0.034-3.845c-0.381-2.25-2.802-2.834-4.306-1.119C73.336,26.993,73.759,27.418,74.014,27.127z"/>
		</g>
	</g>
	<g>
		<path fill="#FFFFFF" d="M83.114,30.227c0,0.248-0.048,0.47-0.144,0.666c-0.097,0.196-0.227,0.362-0.391,0.498
			s-0.354,0.24-0.57,0.312c-0.216,0.072-0.447,0.108-0.695,0.108c-0.408,0-0.778-0.078-1.11-0.234
			c-0.332-0.156-0.605-0.386-0.822-0.69l0.217-0.144c0.399,0.56,0.976,0.84,1.728,0.84c0.176,0,0.354-0.028,0.534-0.084
			c0.18-0.056,0.344-0.14,0.492-0.252c0.147-0.112,0.268-0.252,0.359-0.42s0.139-0.36,0.139-0.576c0-0.256-0.059-0.464-0.175-0.624
			c-0.115-0.16-0.262-0.288-0.438-0.384c-0.176-0.096-0.37-0.174-0.582-0.234c-0.212-0.06-0.41-0.114-0.594-0.162
			c-0.2-0.056-0.389-0.118-0.564-0.186s-0.33-0.156-0.462-0.264s-0.236-0.242-0.312-0.402c-0.076-0.16-0.114-0.36-0.114-0.6
			c0-0.24,0.048-0.448,0.144-0.624c0.097-0.176,0.225-0.322,0.385-0.438c0.159-0.116,0.342-0.204,0.546-0.264s0.409-0.09,0.617-0.09
			c0.752,0,1.316,0.268,1.692,0.804l-0.228,0.132c-0.185-0.24-0.393-0.418-0.624-0.534c-0.232-0.116-0.513-0.174-0.841-0.174
			c-0.151,0-0.312,0.02-0.479,0.06s-0.322,0.106-0.462,0.198c-0.141,0.092-0.256,0.214-0.348,0.366
			c-0.093,0.152-0.139,0.336-0.139,0.552c0,0.24,0.038,0.432,0.114,0.576s0.182,0.26,0.318,0.348c0.136,0.088,0.3,0.162,0.491,0.222
			c0.192,0.06,0.404,0.118,0.637,0.174c0.216,0.056,0.426,0.122,0.63,0.198c0.204,0.076,0.384,0.17,0.54,0.282
			c0.155,0.112,0.279,0.252,0.372,0.42C83.068,29.771,83.114,29.979,83.114,30.227z"/>
		<g>
			<path fill="#FFFFFF" d="M82.814,30.227c-0.191,1.876-2.422,1.394-3.221,0.448c-0.02,0.157-0.04,0.314-0.061,0.471
				c0.133-0.107,0.145-0.097,0.035,0.032c0.127,0.156,0.327,0.278,0.489,0.39c0.365,0.25,0.843,0.292,1.269,0.315
				c0.838,0.046,1.496-0.51,1.778-1.246c0.31-0.806-0.345-1.478-0.992-1.783c-0.545-0.257-1.161-0.309-1.71-0.568
				c-1.329-0.629,0.073-1.946,0.899-2.006c0.605-0.043,1.11,0.27,1.48,0.716c0.021-0.157,0.04-0.314,0.061-0.471
				c-0.132,0.103-0.15,0.089-0.057-0.041c-0.131-0.149-0.326-0.26-0.492-0.362c-0.293-0.179-0.661-0.194-0.992-0.214
				c-0.64-0.04-1.179,0.284-1.548,0.772c-0.312,0.413-0.251,1.342,0.159,1.687C80.743,29.064,82.677,28.86,82.814,30.227
				c0.038,0.381,0.639,0.385,0.6,0c-0.082-0.821-0.447-1.252-1.198-1.585c-0.424-0.188-0.895-0.272-1.338-0.402
				c-1.48-0.433-0.391-1.68,0.424-1.733c0.526-0.034,0.924,0.246,1.253,0.62c0.088,0.101,0.252,0.111,0.363,0.047
				c0.076-0.044,0.151-0.088,0.228-0.132c0.179-0.104,0.182-0.325,0.061-0.471c-1.138-1.373-3.684-1.158-3.896,0.824
				c-0.076,0.715,0.476,1.33,1.107,1.555c0.728,0.259,2.008,0.309,2.133,1.301c0.136,1.077-1.188,1.073-1.746,0.974
				c-0.431-0.076-0.732-0.374-0.994-0.694c-0.08-0.099-0.26-0.116-0.363-0.047c-0.072,0.048-0.145,0.096-0.217,0.144
				c-0.17,0.113-0.189,0.319-0.061,0.471c1.263,1.496,4.018,1.352,4.244-0.872C83.453,29.842,82.854,29.846,82.814,30.227z"/>
		</g>
	</g>
</g>
</svg>
